<?xml version="1.0" encoding="UTF-8"?>
<svg version="1.1" xmlns="http://www.w3.org/2000/svg" width="500" height="500">
<path d="M0 0 C165 0 330 0 500 0 C500 165 500 330 500 500 C335 500 170 500 0 500 C0 335 0 170 0 0 Z " fill="#FEFEFE" transform="translate(0,0)"/>
<path d="M0 0 C1.2375 0.4125 2.475 0.825 3.75 1.25 C29.32099668 10.20213839 47.65467149 30.17213704 59.47265625 53.96484375 C65.03999432 66.3764323 67.85139115 79.40139139 67 93 C67.62455078 92.98952637 68.24910156 92.97905273 68.89257812 92.96826172 C71.76167671 92.92631894 74.63071048 92.90055347 77.5 92.875 C78.97339844 92.84986328 78.97339844 92.84986328 80.4765625 92.82421875 C94.47524152 92.73089422 105.7607955 97.52400766 115.9375 107.3125 C120.48184609 112.14789592 124.10715009 117.02734729 127 123 C127.33773438 123.66902344 127.67546875 124.33804688 128.0234375 125.02734375 C131.16860327 132.54400139 130.24743537 141.01791835 130 149 C130.95519531 148.95359375 131.91039062 148.9071875 132.89453125 148.859375 C143.74188648 148.55655751 152.22421538 149.5220418 160.875 156.75 C168.93241945 164.56238165 171.87793429 172.18726121 172.15698242 183.37158203 C172.22060853 188.45659102 172.17493538 193.54007087 172.125 198.625 C172.11495103 200.41015123 172.10582857 202.19530794 172.09765625 203.98046875 C172.0757925 208.32044931 172.04136815 212.66016332 172 217 C171.11984285 217.00358253 171.11984285 217.00358253 170.22190475 217.00723743 C155.89721784 217.06655799 141.57268466 217.14221591 127.24818039 217.23571491 C120.32074258 217.28054406 113.3933547 217.31998778 106.46582031 217.34643555 C99.77429826 217.37199778 93.08302974 217.41298819 86.39163971 217.46318626 C83.84495077 217.47980864 81.29822321 217.49135162 78.75148773 217.49761391 C75.17100353 217.50730521 71.59108535 217.5354255 68.01074219 217.56762695 C66.44842865 217.56547432 66.44842865 217.56547432 64.85455322 217.5632782 C47.75112155 217.77933579 33.66609218 224.31426593 21.59375 236.2421875 C9.74225237 248.84332805 5.35140554 263.90407491 5.6875 280.83984375 C6.46514799 298.41144812 14.43973765 312.19820953 27.12109375 323.96875 C39.0847048 333.97867044 52.46244446 337.28762972 67.67016602 337.31884766 C68.80289444 337.32889328 69.93562286 337.3389389 71.10267639 337.34928894 C74.81974819 337.38000113 78.53674836 337.39712292 82.25390625 337.4140625 C84.84179801 337.43278375 87.42968372 337.45235787 90.01756287 337.4727478 C96.11586676 337.51874743 102.21416734 337.55619168 108.31255239 337.58942068 C115.26069025 337.62776251 122.20873633 337.67714068 129.15679657 337.72740483 C143.43779502 337.83047233 157.71885566 337.91981387 172 338 C172.10240038 344.45534531 172.17187969 350.9104771 172.21972656 357.36645508 C172.23969742 359.5572899 172.26688378 361.74807243 172.30175781 363.9387207 C172.77068433 394.17758542 172.77068433 394.17758542 163.875 403.5 C158.58221401 408.88917779 151.2407632 413.7280037 143.47394663 414.1311025 C142.45482689 414.13397522 141.43570715 414.13684793 140.38570499 414.1398077 C139.20974453 414.14549894 138.03378407 414.15119018 136.82218844 414.15705389 C135.52397187 414.15823376 134.22575531 414.15941364 132.88819885 414.16062927 C131.49997802 414.16535955 130.11175857 414.17051036 128.72354072 414.17604691 C124.89975733 414.18996586 121.07598346 414.19754026 117.25218117 414.2040199 C113.97446019 414.21038781 110.69675489 414.22045844 107.41904367 414.23058056 C96.61778918 414.26391986 85.81652515 414.28543071 75.01523605 414.30378041 C72.20221781 414.30857532 69.38919996 414.31355867 66.57618213 414.31858563 C49.1061855 414.34956076 31.63618556 414.37624542 14.16616917 414.39300442 C10.11867326 414.39695391 6.07117742 414.4009569 2.02368164 414.4050293 C0.5147063 414.40654184 0.5147063 414.40654184 -1.0247534 414.40808494 C-17.31217804 414.42508289 -33.5994505 414.46618118 -49.88680088 414.51705229 C-66.61113687 414.5688581 -83.33539467 414.59795075 -100.05981022 414.6052013 C-109.44888739 414.60986024 -118.83771552 414.62457636 -128.22671318 414.6649456 C-136.22518777 414.69929425 -144.22336839 414.71316548 -152.2219125 414.70052146 C-156.30052011 414.69470553 -160.3785064 414.69848226 -164.45701981 414.7286911 C-168.1975776 414.75616956 -171.93707612 414.75546951 -175.67765868 414.73318065 C-177.65799205 414.72846427 -179.63832975 414.75313028 -181.61849779 414.77914995 C-192.41615664 414.66605385 -200.8447508 411.50087215 -208.5 403.75 C-215.16933125 396.20312517 -216.59335731 387.30248231 -216.5146637 377.57653809 C-216.52160922 376.46840681 -216.52855475 375.36027553 -216.53571075 374.21856451 C-216.55391928 370.52766279 -216.54373309 366.83740828 -216.53344727 363.14648438 C-216.54050879 360.49129765 -216.54911873 357.83615597 -216.55955505 355.1809845 C-216.5811362 348.73127606 -216.58108349 342.28174446 -216.57292951 335.83201182 C-216.56661621 330.58775356 -216.5677787 325.34354668 -216.57420158 320.09928894 C-216.57510324 319.35140817 -216.57600489 318.6035274 -216.57693387 317.83298358 C-216.57878517 316.31342922 -216.58064773 314.79387488 -216.58252143 313.27432054 C-216.59907909 299.04297413 -216.59039773 284.81172701 -216.57353585 270.58038658 C-216.55883762 257.57380658 -216.57347255 244.56745756 -216.60230602 231.5609073 C-216.63172981 218.1879505 -216.64266381 204.81510019 -216.63312382 191.44211245 C-216.63210132 189.928312 -216.63110671 188.41451154 -216.6301403 186.90071106 C-216.62966391 186.15599418 -216.62918752 185.41127729 -216.6286967 184.64399323 C-216.62653667 179.40920191 -216.63631456 174.17451191 -216.65091133 168.93974304 C-216.66846543 162.55568286 -216.66827336 156.17191715 -216.64555968 149.78786838 C-216.63444548 146.53377268 -216.63391273 143.28029998 -216.64986038 140.02620888 C-216.6658109 136.49146782 -216.65081849 132.95813689 -216.62818909 129.42346191 C-216.64002482 128.40496454 -216.65186054 127.38646716 -216.66405493 126.33710623 C-216.54410871 117.08920801 -213.03905707 109.42962083 -206.8046875 102.59765625 C-200.30455899 96.84321348 -192.56015484 92.73681095 -183.83276367 92.77294922 C-182.61187546 92.77310028 -181.39098724 92.77325134 -180.13310242 92.77340698 C-178.17036125 92.78889084 -178.17036125 92.78889084 -176.16796875 92.8046875 C-174.80748198 92.80842078 -173.4469925 92.81126627 -172.08650208 92.81326294 C-168.51738983 92.82087462 -164.94844209 92.84050166 -161.37939453 92.8626709 C-157.73277003 92.88318265 -154.08611877 92.89227602 -150.43945312 92.90234375 C-143.29290173 92.92375009 -136.14646164 92.95785603 -129 93 C-129.00394272 91.86668747 -129.00394272 91.86668747 -129.00796509 90.71047974 C-129.01000946 89.71950287 -129.01205383 88.728526 -129.01416016 87.70751953 C-129.01810287 86.2338945 -129.01810287 86.2338945 -129.02212524 84.73049927 C-128.84148069 62.43696742 -117.52127445 42.19579979 -103 26 C-102.37738281 25.29488281 -101.75476563 24.58976562 -101.11328125 23.86328125 C-76.7711677 -2.11184621 -33.45621779 -12.39119177 0 0 Z " fill="#A98F06" transform="translate(261,45)"/>
<path d="M0 0 C24.43384827 -0.82473702 45.70787847 7.11142559 63.76977539 23.76977539 C71.69210114 31.44055715 77.86503086 41.02527079 82.07421875 51.19140625 C82.53957031 52.25617188 83.00492188 53.3209375 83.484375 54.41796875 C89.92855783 71.47082024 90.11762142 95.51297289 82.76489258 112.37768555 C82.33019653 113.30641479 82.33019653 113.30641479 81.88671875 114.25390625 C81.42978638 115.26287964 81.42978638 115.26287964 80.96362305 116.29223633 C78.19022679 122.25799021 74.91558054 127.84573494 71.07421875 133.19140625 C70.64036865 134.05443359 70.20651855 134.91746094 69.75952148 135.80664062 C65.29764476 139.76914738 60.1825837 138.80288152 54.43359375 138.6796875 C53.19627502 138.67261276 51.9589563 138.66553802 50.68414307 138.6582489 C47.40224149 138.63500799 44.12157444 138.5901258 40.84008789 138.534729 C37.48855974 138.48348395 34.13697853 138.4611505 30.78515625 138.43554688 C24.21429877 138.38040307 17.64449841 138.29408662 11.07421875 138.19140625 C11.07421875 132.25140625 11.07421875 126.31140625 11.07421875 120.19140625 C13.40484375 119.96453125 15.73546875 119.73765625 18.13671875 119.50390625 C24.42529412 118.77959953 28.31467738 117.39751258 33.07421875 113.19140625 C33.73421875 113.19140625 34.39421875 113.19140625 35.07421875 113.19140625 C35.47640625 112.38703125 35.47640625 112.38703125 35.88671875 111.56640625 C37.07421875 109.19140625 37.07421875 109.19140625 38.69921875 106.75390625 C41.03123691 100.71185919 41.12425319 94.04778273 39.41796875 87.78125 C36.87657066 82.0959672 32.50072265 77.91735777 26.96630859 75.12963867 C23.26184302 73.92786075 19.77177016 73.93169914 15.921875 73.953125 C14.32486126 73.93770875 12.72785588 73.92140537 11.13085938 73.90429688 C8.63140303 73.88784501 6.13256273 73.878918 3.63305664 73.88598633 C1.20779835 73.88861391 -1.21561411 73.86044342 -3.640625 73.828125 C-4.38142807 73.83833176 -5.12223114 73.84853851 -5.88548279 73.85905457 C-9.79052497 73.78591932 -12.36953316 73.23007529 -15.40063477 70.83911133 C-17.92578125 68.19140625 -17.92578125 68.19140625 -18.61328125 65.19140625 C-17.65916834 61.02800447 -16.35131442 59.76109003 -12.92578125 57.19140625 C-9.32183094 56.47253215 -5.77785878 56.54135404 -2.11328125 56.58984375 C-0.54356567 56.57783432 -0.54356567 56.57783432 1.05786133 56.56558228 C4.39704207 56.54251974 7.73500523 56.55197577 11.07421875 56.56640625 C14.41320399 56.57025412 17.75165143 56.56681365 21.09057617 56.54580688 C23.16622711 56.53372196 25.24202901 56.53637972 27.31762695 56.55551147 C34.20526886 56.57613632 34.20526886 56.57613632 40.07421875 53.19140625 C40.78412814 51.26229453 40.78412814 51.26229453 40.57421875 49.19140625 C40.55875 48.17046875 40.55875 48.17046875 40.54296875 47.12890625 C39.92721645 44.58379674 39.1482352 43.78971817 37.07421875 42.19140625 C34.36937 41.68594757 34.36937 41.68594757 31.3125 41.6796875 C29.63510742 41.62651367 29.63510742 41.62651367 27.92382812 41.57226562 C26.75658203 41.54970703 25.58933594 41.52714844 24.38671875 41.50390625 C23.20787109 41.46974609 22.02902344 41.43558594 20.81445312 41.40039062 C17.9011365 41.317827 14.98812409 41.24870303 12.07421875 41.19140625 C12.01814453 39.72767578 12.01814453 39.72767578 11.9609375 38.234375 C11.89519531 36.96207031 11.82945312 35.68976563 11.76171875 34.37890625 C11.70371094 33.11433594 11.64570313 31.84976563 11.5859375 30.546875 C11.33231938 27.27937469 11.33231938 27.27937469 9.78125 25.2734375 C7.74423026 23.98223734 6.47885177 23.72784008 4.07421875 23.69140625 C3.05328125 23.645 3.05328125 23.645 2.01171875 23.59765625 C-0.15078081 24.06108874 -0.15078081 24.06108874 -1.6328125 26.328125 C-3.07766416 29.52775118 -3.42125985 32.00911678 -3.61328125 35.50390625 C-3.67902344 36.57253906 -3.74476563 37.64117187 -3.8125 38.7421875 C-3.84988281 39.55042969 -3.88726562 40.35867187 -3.92578125 41.19140625 C-4.60382813 41.20558594 -5.281875 41.21976563 -5.98046875 41.234375 C-13.99603356 41.64514494 -21.1149479 43.21791538 -26.84765625 49.1953125 C-32.09783874 55.98304844 -32.49456553 61.74549632 -31.92578125 70.19140625 C-30.8988613 75.87244048 -28.42817601 79.21679727 -24.03515625 82.8671875 C-18.12460155 86.57770239 -13.35767393 87.61959891 -6.5078125 87.5625 C-4.90820081 87.57986631 -3.30859148 87.59745083 -1.70898438 87.61523438 C0.78609329 87.6253359 3.28102568 87.62889313 5.77612305 87.62719727 C8.20274487 87.63076408 10.62826228 87.65807153 13.0546875 87.6875 C13.79953903 87.67931747 14.54439056 87.67113495 15.31181335 87.66270447 C18.82734698 87.71326013 20.72139657 87.91885818 23.54223633 90.09790039 C25.20324051 92.36771886 25.61763205 93.41295526 25.57421875 96.19140625 C25.5896875 97.18140625 25.5896875 97.18140625 25.60546875 98.19140625 C24.76697995 101.34806997 23.76844134 102.26632763 21.07421875 104.19140625 C17.33962133 104.79521783 13.62743913 104.72436032 9.8515625 104.6953125 C8.75453506 104.70473373 7.65750763 104.71415497 6.52723694 104.72386169 C3.02187429 104.75255751 -0.48281046 104.75558753 -3.98828125 104.75390625 C-7.49722351 104.75750713 -11.00567252 104.76695985 -14.51451111 104.79466248 C-16.69801047 104.81152475 -18.88167279 104.81426933 -21.06520081 104.801651 C-22.05310104 104.80853439 -23.04100128 104.81541779 -24.05883789 104.82250977 C-24.92835587 104.821548 -25.79787384 104.82058624 -26.69374084 104.81959534 C-29.40057366 105.27049666 -30.27758157 106.03763117 -31.92578125 108.19140625 C-32.43381945 110.13345592 -32.43381945 110.13345592 -32.36328125 112.19140625 C-32.38261719 112.87203125 -32.40195313 113.55265625 -32.421875 114.25390625 C-31.70178076 117.0662428 -30.37606653 117.70226979 -27.92578125 119.19140625 C-25.22613969 119.69173583 -25.22613969 119.69173583 -22.28515625 119.703125 C-20.68027344 119.75629883 -20.68027344 119.75629883 -19.04296875 119.81054688 C-17.93179688 119.83310547 -16.820625 119.85566406 -15.67578125 119.87890625 C-14.54914063 119.91306641 -13.4225 119.94722656 -12.26171875 119.98242188 C-9.48342171 120.06482899 -6.70461726 120.12979597 -3.92578125 120.19140625 C-3.92578125 126.13140625 -3.92578125 132.07140625 -3.92578125 138.19140625 C-11.30864382 138.48911771 -18.68798302 138.70627149 -26.07543945 138.85058594 C-28.58517331 138.91076132 -31.09448941 138.99252908 -33.6027832 139.09667969 C-55.60840124 139.98720658 -55.60840124 139.98720658 -60.5090332 135.67553711 C-62.8631355 132.57750498 -64.41761695 129.76656848 -65.92578125 126.19140625 C-67.02246258 124.20808207 -68.12555954 122.2282758 -69.23828125 120.25390625 C-79.62524862 98.18519719 -80.39148354 75.72657081 -72.828125 52.875 C-64.79100166 31.97847931 -48.33823452 16.07793979 -28.34765625 6.66015625 C-18.7553437 2.54290794 -10.34373172 0.50432125 0 0 Z " fill="#FEFEFC" transform="translate(224.92578125,55.80859375)"/>
<path d="M0 0 C1.9093483 -0.01029488 1.9093483 -0.01029488 3.85726929 -0.02079773 C7.31346248 -0.03857865 10.7693998 -0.03759144 14.2256248 -0.03185534 C17.11874009 -0.0287462 20.01180744 -0.0348739 22.90491587 -0.04089409 C29.72620273 -0.05488357 36.54736415 -0.05342043 43.36865234 -0.04199219 C50.39954233 -0.03047304 57.43005256 -0.04466247 64.46089262 -0.07138866 C70.51295874 -0.09353033 76.56490547 -0.10018782 82.61700922 -0.09431225 C86.2254118 -0.09094299 89.83357004 -0.09335741 93.4419384 -0.11056328 C97.45633059 -0.12887615 101.46997803 -0.11486168 105.484375 -0.09765625 C106.67765915 -0.10732422 107.8709433 -0.11699219 109.10038757 -0.12695312 C110.73817169 -0.11220192 110.73817169 -0.11220192 112.40904236 -0.09715271 C113.35710723 -0.09694343 114.3051721 -0.09673414 115.28196621 -0.09651852 C118.57045936 0.56000387 119.76069157 1.77781845 121.78930664 4.40405273 C122.17886166 7.21129912 122.32683753 9.62477638 122.29101562 12.4296875 C122.2991201 13.63765488 122.2991201 13.63765488 122.30738831 14.87002563 C122.31988418 17.52887856 122.30338089 20.18665058 122.28540039 22.84545898 C122.28555534 24.69343625 122.28704371 26.54141384 122.28981018 28.38938904 C122.2911945 32.26055279 122.2786294 36.13134619 122.25585938 40.00244141 C122.22745474 44.96826347 122.23021698 49.93347104 122.24294949 54.89933872 C122.24989854 58.71430221 122.24212659 62.52912323 122.22969246 66.34406853 C122.22517182 68.17532747 122.22484649 70.00660167 122.22875786 71.83786201 C122.23166303 74.39483215 122.2151977 76.95094997 122.19335938 79.5078125 C122.20011185 80.64637444 122.20011185 80.64637444 122.20700073 81.80793762 C122.13452986 86.90573124 122.13452986 86.90573124 120.45155334 89.33506775 C117.20580553 91.4223967 114.36473428 91.53404043 110.61868286 91.55122375 C109.54792007 91.55837906 108.47715729 91.56553436 107.37394714 91.57290649 C106.19891129 91.5755954 105.02387543 91.5782843 103.81323242 91.58105469 C102.57546555 91.58762589 101.33769867 91.59419708 100.06242371 91.60096741 C95.95315307 91.62072649 91.84392155 91.63237593 87.73461914 91.64233398 C86.31621151 91.64638325 84.89780406 91.65050023 83.47939682 91.65468407 C76.80785389 91.67374193 70.136322 91.68796602 63.46475708 91.69629604 C55.78831755 91.70604065 48.11216851 91.7322844 40.43583119 91.77279693 C34.48911757 91.80309212 28.5424865 91.81777792 22.59569728 91.82107705 C19.05112556 91.82341431 15.50686388 91.83219829 11.96237564 91.85753822 C7.99460139 91.88544342 4.02719915 91.88094712 0.05932617 91.87402344 C-1.09546738 91.8868335 -2.25026093 91.89964355 -3.44004822 91.9128418 C-16.05445459 91.8331373 -26.4744112 88.46879619 -36.21069336 80.40405273 C-37.16395508 79.65381836 -37.16395508 79.65381836 -38.13647461 78.88842773 C-44.23364578 73.53481403 -50.71580581 62.65013346 -51.37182617 54.37036133 C-51.41767185 51.8397864 -51.44599986 49.31000883 -51.46069336 46.77905273 C-51.48131836 45.9140918 -51.50194336 45.04913086 -51.52319336 44.15795898 C-51.59358327 32.42044163 -47.08232511 22.20209357 -39.02319336 13.71655273 C-27.56349361 2.86298587 -15.48383303 -0.0591145 0 0 Z " fill="#FEFEFE" transform="translate(333.210693359375,276.595947265625)"/>
<path d="M0 0 C1.9093483 -0.01029488 1.9093483 -0.01029488 3.85726929 -0.02079773 C7.31346248 -0.03857865 10.7693998 -0.03759144 14.2256248 -0.03185534 C17.11874009 -0.0287462 20.01180744 -0.0348739 22.90491587 -0.04089409 C29.72620273 -0.05488357 36.54736415 -0.05342043 43.36865234 -0.04199219 C50.39954233 -0.03047304 57.43005256 -0.04466247 64.46089262 -0.07138866 C70.51295874 -0.09353033 76.56490547 -0.10018782 82.61700922 -0.09431225 C86.2254118 -0.09094299 89.83357004 -0.09335741 93.4419384 -0.11056328 C97.45633059 -0.12887615 101.46997803 -0.11486168 105.484375 -0.09765625 C106.67765915 -0.10732422 107.8709433 -0.11699219 109.10038757 -0.12695312 C110.73817169 -0.11220192 110.73817169 -0.11220192 112.40904236 -0.09715271 C113.35710723 -0.09694343 114.3051721 -0.09673414 115.28196621 -0.09651852 C118.57045936 0.56000387 119.76069157 1.77781845 121.78930664 4.40405273 C122.17886166 7.21129912 122.32683753 9.62477638 122.29101562 12.4296875 C122.2991201 13.63765488 122.2991201 13.63765488 122.30738831 14.87002563 C122.31988418 17.52887856 122.30338089 20.18665058 122.28540039 22.84545898 C122.28555534 24.69343625 122.28704371 26.54141384 122.28981018 28.38938904 C122.2911945 32.26055279 122.2786294 36.13134619 122.25585938 40.00244141 C122.22745474 44.96826347 122.23021698 49.93347104 122.24294949 54.89933872 C122.24989854 58.71430221 122.24212659 62.52912323 122.22969246 66.34406853 C122.22517182 68.17532747 122.22484649 70.00660167 122.22875786 71.83786201 C122.23166303 74.39483215 122.2151977 76.95094997 122.19335938 79.5078125 C122.20011185 80.64637444 122.20011185 80.64637444 122.20700073 81.80793762 C122.13452986 86.90573124 122.13452986 86.90573124 120.45155334 89.33506775 C117.20580553 91.4223967 114.36473428 91.53404043 110.61868286 91.55122375 C109.54792007 91.55837906 108.47715729 91.56553436 107.37394714 91.57290649 C106.19891129 91.5755954 105.02387543 91.5782843 103.81323242 91.58105469 C102.57546555 91.58762589 101.33769867 91.59419708 100.06242371 91.60096741 C95.95315307 91.62072649 91.84392155 91.63237593 87.73461914 91.64233398 C86.31621151 91.64638325 84.89780406 91.65050023 83.47939682 91.65468407 C76.80785389 91.67374193 70.136322 91.68796602 63.46475708 91.69629604 C55.78831755 91.70604065 48.11216851 91.7322844 40.43583119 91.77279693 C34.48911757 91.80309212 28.5424865 91.81777792 22.59569728 91.82107705 C19.05112556 91.82341431 15.50686388 91.83219829 11.96237564 91.85753822 C7.99460139 91.88544342 4.02719915 91.88094712 0.05932617 91.87402344 C-1.09546738 91.8868335 -2.25026093 91.89964355 -3.44004822 91.9128418 C-16.05445459 91.8331373 -26.4744112 88.46879619 -36.21069336 80.40405273 C-37.16395508 79.65381836 -37.16395508 79.65381836 -38.13647461 78.88842773 C-44.23364578 73.53481403 -50.71580581 62.65013346 -51.37182617 54.37036133 C-51.41767185 51.8397864 -51.44599986 49.31000883 -51.46069336 46.77905273 C-51.48131836 45.9140918 -51.50194336 45.04913086 -51.52319336 44.15795898 C-51.59358327 32.42044163 -47.08232511 22.20209357 -39.02319336 13.71655273 C-27.56349361 2.86298587 -15.48383303 -0.0591145 0 0 Z M-32.21069336 29.40405273 C-37.01281616 36.43088779 -37.14119362 44.13507107 -36.21069336 52.40405273 C-34.15904271 60.53781565 -28.65821241 66.73046653 -22.14819336 71.77905273 C-15.24978549 75.59519326 -9.22999049 75.68151876 -1.51391602 75.63110352 C-0.34261139 75.63139557 0.82869324 75.63168762 2.03549194 75.63198853 C5.89881859 75.63059757 9.76195127 75.61504704 13.62524414 75.59936523 C16.30710171 75.59563428 18.9889486 75.59268928 21.67080688 75.59078979 C28.00301531 75.58458325 34.33515436 75.56818366 40.66733229 75.54809082 C48.58688332 75.52350859 56.50644571 75.51258758 64.42602539 75.50170898 C78.54717313 75.48225157 92.66816957 75.44218362 106.78930664 75.40405273 C106.78930664 55.93405273 106.78930664 36.46405273 106.78930664 16.40405273 C84.48385384 16.25376575 84.48385384 16.25376575 62.17832947 16.15278339 C54.19889387 16.12511249 46.21972057 16.09002295 38.24047852 16.02685547 C31.92137677 15.97685451 25.60247326 15.94472266 19.28317916 15.93361026 C15.94018669 15.92711917 12.59820803 15.90931526 9.25531387 15.87540245 C5.51386522 15.83896508 1.77358072 15.83411386 -1.96801758 15.83642578 C-3.61124748 15.80946121 -3.61124748 15.80946121 -5.28767395 15.7819519 C-16.66316787 15.85772525 -25.18614309 20.5019729 -32.21069336 29.40405273 Z " fill="#AA910A" transform="translate(333.210693359375,276.595947265625)"/>
<path d="M0 0 C1.91619896 0.00848969 1.91619896 0.00848969 3.87110901 0.01715088 C7.24659523 0.0356868 10.62097468 0.07154205 13.99615479 0.1159668 C17.44851177 0.15708688 20.90098367 0.17519734 24.35351562 0.1953125 C31.11228199 0.2393282 37.8705303 0.30620333 44.62890625 0.390625 C44.78840759 0.9793187 44.94790894 1.56801239 45.11224365 2.17454529 C45.85412733 4.89349201 46.60862264 7.60879128 47.36328125 10.32421875 C47.73912354 11.71272034 47.73912354 11.71272034 48.12255859 13.12927246 C50.55997824 21.83789015 54.2867871 29.49853006 58.62890625 37.390625 C59.30036049 38.72155378 59.96810853 40.05437331 60.62890625 41.390625 C51.69208803 41.4837361 42.75543948 41.55459673 33.81824017 41.59787369 C29.66730677 41.61865552 25.51670779 41.64679848 21.3659668 41.69238281 C17.35237706 41.7361798 13.33910686 41.75983263 9.3252964 41.77013397 C7.80203034 41.77746517 6.27877967 41.79177959 4.75565147 41.81354523 C-15.00221209 42.08438818 -15.00221209 42.08438818 -22.36128235 35.6506958 C-27.41603307 30.19325447 -28.79558171 25.17061778 -28.62109375 17.8203125 C-28.00984436 11.87973253 -24.75322257 8.1751908 -20.37109375 4.390625 C-13.86742394 -0.47998939 -7.92736832 -0.13278294 0 0 Z " fill="#FDFDFB" transform="translate(88.37109375,152.609375)"/>
<path d="M0 0 C15.93193023 -0.5943518 27.47873879 0.30149145 39.6484375 11.51953125 C48.02123214 20.2535886 49 29.11587529 49 41 C27.55 41 6.1 41 -16 41 C-13.36 36.05 -10.72 31.1 -8 26 C-6.75604731 23.00778948 -5.6206755 20.17921931 -4.625 17.125 C-4.39167969 16.45726562 -4.15835937 15.78953125 -3.91796875 15.1015625 C-2.23077416 10.14483263 -1.05139261 5.12609663 0 0 Z " fill="#FDFCF9" transform="translate(327,153)"/>
<path d="M0 0 C3.48579191 1.98927391 6.19581306 4.39162612 8 8 C8.54978069 13.0111158 8.56154513 16.89696493 6.25 21.4375 C1.55365763 26.78611214 1.55365763 26.78611214 -2.04296875 27.28125 C-7.09042018 27.48416262 -10.70177739 26.86548174 -15 24 C-18.56590274 20.06521077 -19.35331294 16.35924874 -19.28515625 11.0625 C-18.70916539 6.89642912 -16.22239899 4.10359131 -13.19140625 1.3671875 C-9.10681654 -1.1811305 -4.62326808 -0.82814534 0 0 Z " fill="#AA9009" transform="translate(337,309)"/>
</svg>
